<?xml version="1.0" encoding="utf-8"?>
<!-- Generator: Adobe Illustrator 23.0.2, SVG Export Plug-In . SVG Version: 6.00 Build 0)  -->
<svg version="1.1" id="Layer_1" xmlns="http://www.w3.org/2000/svg" xmlns:xlink="http://www.w3.org/1999/xlink" x="0px" y="0px"
	 viewBox="0 0 83 29.4" style="enable-background:new 0 0 83 29.4;" xml:space="preserve">
<style type="text/css">
	.st0{fill:#FF8900;}
	.st1{fill:#985009;}
	.st2{enable-background:new    ;}
	.st3{fill:#FFFFFF;}
</style>
<g id="Group_121" transform="translate(-475 -1413)">
	<rect id="Rectangle_86" x="475" y="1413" class="st0" width="83" height="20"/>
	<path id="Path_158" class="st1" d="M543.4,1433v9.4l14.2-9.4H543.4z"/>
	<g class="st2">
		<path class="st3" d="M505.4,1418.6l2.2,3.1l2.2-3.1h1.4l-2.8,4l3.1,4.4H510l-2.4-3.3l-2.4,3.3h-1.4l3.1-4.3l-2.9-4.1H505.4z"/>
		<path class="st3" d="M512.6,1418.6h1.2v6.5l5-6.5h1.1v8.4h-1.2v-6.5l-5,6.5h-1.1V1418.6z"/>
		<path class="st3" d="M528.3,1419.6h-2.9v7.4h-1.2v-7.4h-2.9v-1h6.9V1419.6z"/>
	</g>
</g>
</svg>
