<?xml version="1.0" encoding="utf-8"?>
<!-- Generator: Adobe Illustrator 23.0.2, SVG Export Plug-In . SVG Version: 6.00 Build 0)  -->
<svg version="1.1" id="Layer_1" xmlns="http://www.w3.org/2000/svg" xmlns:xlink="http://www.w3.org/1999/xlink" x="0px" y="0px"
	 viewBox="0 0 83 29.4" style="enable-background:new 0 0 83 29.4;" xml:space="preserve">
<style type="text/css">
	.st0{fill:#CD0006;}
	.st1{fill:#650609;}
	.st2{enable-background:new    ;}
	.st3{fill:#FFFFFF;}
</style>
<g id="Group_122" transform="translate(-1203 -1375)">
	<rect id="Rectangle_87" x="1203" y="1375" class="st0" width="83" height="20"/>
	<path id="Path_159" class="st1" d="M1271.4,1395v9.4l14.2-9.4H1271.4z"/>
	<g class="st2">
		<path class="st3" d="M1221.8,1388.5c-0.7-0.4-1.2-0.9-1.6-1.5c-0.4-0.7-0.6-1.4-0.6-2.2c0-0.8,0.2-1.5,0.6-2.2
			c0.4-0.7,0.9-1.2,1.6-1.5c0.7-0.4,1.4-0.6,2.3-0.6c0.7,0,1.3,0.1,1.8,0.3s1,0.5,1.4,1l-0.8,0.8c-0.6-0.7-1.4-1-2.4-1
			c-0.6,0-1.2,0.1-1.7,0.4s-0.9,0.7-1.2,1.2c-0.3,0.5-0.4,1-0.4,1.6c0,0.6,0.1,1.2,0.4,1.7c0.3,0.5,0.7,0.9,1.2,1.2
			c0.5,0.3,1.1,0.4,1.7,0.4c0.9,0,1.7-0.3,2.4-1l0.8,0.8c-0.4,0.4-0.9,0.8-1.4,1c-0.5,0.2-1.2,0.3-1.8,0.3
			C1223.2,1389.1,1222.5,1388.9,1221.8,1388.5z"/>
		<path class="st3" d="M1231.9,1385.3h-1.8v3.7h-1.2v-8.4h1.2v3.6h1.8l2.6-3.6h1.3l-3,4.1l3.1,4.3h-1.4L1231.9,1385.3z"/>
		<path class="st3" d="M1237.2,1380.6h1.2v6.5l5-6.5h1.1v8.4h-1.2v-6.5l-5,6.5h-1.1V1380.6z"/>
		<path class="st3" d="M1255,1388v2.9h-1.1v-1.8h-6.9l0,1.8h-1.1l0-2.9h0.4c0.5,0,0.9-0.5,1.1-1.3c0.2-0.8,0.3-1.9,0.4-3.4l0.1-2.7
			h5.9v7.4H1255z M1248.5,1386.3c-0.1,0.8-0.4,1.3-0.7,1.6h4.7v-6.3h-3.7l-0.1,1.8C1248.7,1384.6,1248.7,1385.6,1248.5,1386.3z"/>
		<path class="st3" d="M1259.5,1385.3h-1.8v3.7h-1.2v-8.4h1.2v3.6h1.8l2.6-3.6h1.3l-3,4.1l3.1,4.3h-1.4L1259.5,1385.3z"/>
		<path class="st3" d="M1270.2,1386.9h-4.5l-0.9,2.1h-1.2l3.8-8.4h1.2l3.8,8.4h-1.3L1270.2,1386.9z M1269.8,1385.9l-1.8-4.1
			l-1.8,4.1H1269.8z"/>
	</g>
</g>
</svg>
