<svg xmlns="http://www.w3.org/2000/svg" width="36.92" height="34.447" viewBox="0 0 36.92 34.447">
  <g id="i-korz-red" transform="translate(-1409.613 -108)">
    <path id="Path_19" data-name="Path 19" d="M215.282,230.241A2.073,2.073,0,0,0,212.8,231.8l-2.392,10.417-18.05-.167-4.35-17.4a2.082,2.082,0,0,0-1.012-1.314l-3.948-2.171a2.073,2.073,0,1,0-2,3.633l3.155,1.735,4.431,17.718-2.386,1.883a1.184,1.184,0,0,0-.45.93v2.961a1.184,1.184,0,0,0,1.168,1.185l3.343.048a2.365,2.365,0,1,0,3.274.046l15.635.219a2.368,2.368,0,1,0,3.743.053l2.038.028h.017a1.184,1.184,0,0,0,.016-2.369l-26.866-.378v-1.219l1.971-1.555a2.012,2.012,0,0,0,.576.093l21.32.2h.02a2.073,2.073,0,0,0,2.02-1.609l2.766-12.042A2.073,2.073,0,0,0,215.282,230.241Z" transform="translate(1229.64 -112.91)" fill="#71B9DF"/>
    <path id="Path_20" data-name="Path 20" d="M223.484,234.819h-1.928v-5.576a1.238,1.238,0,0,0-1.237-1.238h-3.712a1.237,1.237,0,0,0-1.237,1.238v5.576h-1.929c-.853,0-1.134.559-.624,1.244l1.434,1.924,1.852,2.486,1.433,1.924a1.093,1.093,0,0,0,1.853,0l1.433-1.924,1.852-2.486,1.434-1.924C224.617,235.378,224.336,234.819,223.484,234.819Z" transform="translate(1212.467 -116.649)" fill="#71B9DF"/>
  </g>
</svg>
