<svg xmlns="http://www.w3.org/2000/svg" width="32.059" height="32.057" viewBox="0 0 32.059 32.057">
  <g id="i-clock" transform="translate(-1102.045 -108)">
    <path id="Path_24" data-name="Path 24" d="M312.37,384.735A16.028,16.028,0,1,0,328.4,368.707,16.028,16.028,0,0,0,312.37,384.735Zm28.406,0A12.378,12.378,0,1,1,328.4,372.357,12.378,12.378,0,0,1,340.776,384.735Z" transform="translate(789.676 -260.707)" fill="#71B9DF"/>
    <path id="Path_25" data-name="Path 25" d="M348.615,383.459v9.392a.5.5,0,1,0,1,0v-9.392a.5.5,0,1,0-1,0Z" transform="translate(768.891 -268.881)" fill="#71B9DF"/>
    <path id="Path_26" data-name="Path 26" d="M328.741,409.651c-.254.106-.443.231-.423.28s.243,0,.5-.1l8.67-3.613c.253-.105.443-.23.423-.279s-.243,0-.5.1Z" transform="translate(780.531 -282.045)" fill="#71B9DF"/>
    <path id="Path_27" data-name="Path 27" d="M349.362,404.6a.729.729,0,1,0,0,1.457h6.158a.729.729,0,0,0,0-1.457Z" transform="translate(768.881 -281.29)" fill="#71B9DF"/>
    <path id="Path_28" data-name="Path 28" d="M347.215,404.423a1.24,1.24,0,1,0,1.24-1.24A1.24,1.24,0,0,0,347.215,404.423Z" transform="translate(769.694 -280.477)" fill="#71B9DF"/>
  </g>
</svg>
