<svg xmlns="http://www.w3.org/2000/svg" width="22.029" height="35" viewBox="0 0 22.029 35">
  <path id="i-tel" d="M80.676,63.332H63.235a2.362,2.362,0,0,0-2.294,2.425v30.15a2.362,2.362,0,0,0,2.294,2.425H80.676a2.362,2.362,0,0,0,2.294-2.425V65.757A2.362,2.362,0,0,0,80.676,63.332Zm-8.72.817a.34.34,0,1,1-.322.339A.33.33,0,0,1,71.956,64.149Zm-1.2,1.37h2.405a.339.339,0,0,1,0,.676H70.753a.339.339,0,0,1,0-.676Zm-1.075.074a.264.264,0,1,1-.25.264A.256.256,0,0,1,69.678,65.593Zm2.277,31.5a1.7,1.7,0,1,1,1.606-1.7A1.654,1.654,0,0,1,71.956,97.1Zm8.182-4.18H63.774V67.292H80.137Z" transform="translate(-60.941 -63.332)" fill="#71B9DF"/>
</svg>
