<?xml version="1.0" encoding="utf-8"?>
<!-- Generator: Adobe Illustrator 23.0.2, SVG Export Plug-In . SVG Version: 6.00 Build 0)  -->
<svg version="1.1" id="Layer_1" xmlns="http://www.w3.org/2000/svg" xmlns:xlink="http://www.w3.org/1999/xlink" x="0px" y="0px"
	 viewBox="0 0 87.3 87.3" style="enable-background:new 0 0 87.3 87.3;" xml:space="preserve">
<style type="text/css">
	.st0{fill:#7695A8;}
</style>
<g transform="translate(1 1)">
	<g transform="translate(0 0)">
		<path class="st0" d="M61.5,67.3l-1.6-1.6l5.1-5.2l1.7,1.7c0.9,0.9,0.4,2.7-1,4.1c-0.8,0.8-1.8,1.3-2.9,1.4
			C62.3,67.8,61.9,67.6,61.5,67.3z M48,53.6c-3.4,2.4-7.4,3.7-11.5,3.7c-11,0-19.9-8.9-19.9-19.9c0-11,8.9-19.9,19.9-19.9
			c11,0,19.9,8.9,19.9,19.9c0,3.9-1.2,7.8-3.3,11l10.5,10.5l-5,5.2L48,53.6z M22.5,37.7c0,7.7,6.3,14,14,14s14-6.3,14-14
			s-6.3-14-14-14S22.5,30,22.5,37.7z M23.6,37.7c0-7.2,5.8-13,13-13c7.2,0,13,5.8,13,13c0,7.2-5.8,13-13,13c0,0,0,0,0,0
			C29.4,50.6,23.6,44.8,23.6,37.7L23.6,37.7z M24.3,37.7c0,6.8,5.5,12.2,12.2,12.2s12.2-5.5,12.2-12.2c0-6.8-5.5-12.2-12.2-12.2
			C29.8,25.4,24.4,30.9,24.3,37.7L24.3,37.7z"/>
	</g>
</g>
</svg>
