<?xml version="1.0" encoding="utf-8"?>
<!-- Generator: Adobe Illustrator 23.0.2, SVG Export Plug-In . SVG Version: 6.00 Build 0)  -->
<svg version="1.1" id="Layer_1" xmlns="http://www.w3.org/2000/svg" xmlns:xlink="http://www.w3.org/1999/xlink" x="0px" y="0px"
	 viewBox="0 0 118.8 118.8" style="enable-background:new 0 0 118.8 118.8;" xml:space="preserve">
<style type="text/css">
	.st0{fill:#FFFFFF;}
</style>
<g id="i-proverka" transform="translate(-212.59 -2076.59)">
	<path id="i-proverka-2" class="st0" d="M298.3,2170.4l-2.3-2.3l7-7.2l2.3,2.3c1.2,1.2,0.6,3.8-1.4,5.7c-1.1,1.2-2.5,1.9-4.1,2
		C299.4,2171,298.8,2170.8,298.3,2170.4z M279.5,2151.3c-4.7,3.3-10.3,5.1-16.1,5.2c-15.1,0.2-27.5-12.1-27.7-27.7
		c-0.2-15.3,12.4-27.7,27.7-27.7c15.3,0,27.7,12.4,27.7,27.7c0,5.5-1.6,10.8-4.6,15.3l14.6,14.6l-7,7.2L279.5,2151.3z M243.9,2129.1
		c0,10.8,8.7,19.5,19.5,19.5l0,0c10.8,0,19.5-8.7,19.5-19.5l0,0c0-10.8-8.7-19.5-19.5-19.5l0,0
		C252.7,2109.6,243.9,2118.3,243.9,2129.1C243.9,2129.1,243.9,2129.1,243.9,2129.1L243.9,2129.1z M245.5,2129.1c0-10,8.1-18,18-18
		c10,0,18,8.1,18,18c0,10-8.1,18-18,18C253.6,2147.1,245.5,2139,245.5,2129.1L245.5,2129.1z M246.5,2129.1c0,9.4,7.6,17,17,17
		c9.4,0,17-7.6,17-17c0-9.4-7.6-17-17-17C254.1,2112,246.5,2119.7,246.5,2129.1L246.5,2129.1z"/>
</g>
</svg>
